<svg width="41.000000" height="41.000000" viewBox="0 0 41 41" fill="none" xmlns="http://www.w3.org/2000/svg" xmlns:xlink="http://www.w3.org/1999/xlink">
	<desc>
			Created with Pixso.
	</desc>
	<defs/>
	<rect id="иконка добавить" rx="-0.500000" width="40.000000" height="40.000000" transform="translate(0.500000 0.500000)" fill="#FFFFFF" fill-opacity="0"/>
	<circle id="Ellipse 111" cx="20.500000" cy="20.500000" r="20.500000" fill="#2C80E6" fill-opacity="1.000000"/>
	<path id="Union" d="M21.7671 18.7671L21.7671 10.6161C21.7671 9.77606 21.1071 9.11609 20.2671 9.11609C19.4271 9.11609 18.7671 9.77606 18.7671 10.6161L18.7671 18.7671L10.6161 18.7671C9.77606 18.7671 9.11609 19.4271 9.11609 20.2671C9.11609 21.1071 9.77606 21.7671 10.6161 21.7671L18.7671 21.7671L18.7671 29.918C18.7671 30.7581 19.4271 31.418 20.2671 31.418C21.1071 31.418 21.7671 30.7581 21.7671 29.918L21.7671 21.7671L29.918 21.7671C30.7581 21.7671 31.418 21.1071 31.418 20.2671C31.418 19.4271 30.7581 18.7671 29.918 18.7671L21.7671 18.7671Z" clip-rule="evenodd" fill="#FFFFFF" fill-opacity="1.000000" fill-rule="evenodd"/>
</svg>
