<svg width="50.000000" height="50.000000" viewBox="0 0 50 50" fill="none" xmlns="http://www.w3.org/2000/svg" xmlns:xlink="http://www.w3.org/1999/xlink">
	<desc>
			Created with Pixso.
	</desc>
	<defs/>
	<path id="Кнопка Добавить" d="M25 0C38.8 0 50 11.19 50 25C50 38.8 38.8 50 25 50C11.19 50 0 38.8 0 25C0 11.19 11.19 0 25 0ZM25 12.5C24.05 12.5 23.26 13.2 23.14 14.12L23.12 14.37L23.12 23.12L14.37 23.12C13.33 23.12 12.5 23.96 12.5 25C12.5 25.94 13.2 26.73 14.12 26.85L14.37 26.87L23.12 26.87L23.12 35.62C23.12 36.66 23.96 37.5 25 37.5C25.94 37.5 26.73 36.79 26.85 35.87L26.87 35.62L26.87 26.87L35.62 26.87C36.66 26.87 37.5 26.03 37.5 25C37.5 24.05 36.79 23.26 35.87 23.14L35.62 23.12L26.87 23.12L26.87 14.37C26.87 13.33 26.03 12.5 25 12.5Z" fill="#6B6B6B" fill-opacity="1.000000" fill-rule="nonzero"/>
</svg>
