<svg width="25.000000" height="25.000000" viewBox="0 0 25 25" fill="none" xmlns="http://www.w3.org/2000/svg" xmlns:xlink="http://www.w3.org/1999/xlink">
	<desc>
			Created with Pixso.
	</desc>
	<defs/>
	<path id="Vector" d="M12.5 0C19.4 0 25 5.59 25 12.5C25 19.4 19.4 25 12.5 25C5.59 25 0 19.4 0 12.5C0 5.59 5.59 0 12.5 0ZM6.83 9.96C6.47 10.32 6.47 10.92 6.83 11.28L11.83 16.28C12.2 16.65 12.79 16.65 13.16 16.28L18.16 11.28C18.52 10.92 18.52 10.32 18.16 9.96C17.79 9.59 17.2 9.59 16.83 9.96L12.5 14.29L8.16 9.96C7.79 9.59 7.2 9.59 6.83 9.96Z" fill="#6DB0FF" fill-opacity="1.000000" fill-rule="nonzero"/>
</svg>
