<svg width="4.166748" height="16.666626" viewBox="0 0 4.16675 16.6666" fill="none" xmlns="http://www.w3.org/2000/svg" xmlns:xlink="http://www.w3.org/1999/xlink">
	<desc>
			Created with Pixso.
	</desc>
	<defs/>
	<path id="Vector" d="M2.08 4.16C0.93 4.16 0 3.23 0 2.08C0 0.93 0.93 0 2.08 0C3.23 0 4.16 0.93 4.16 2.08C4.16 3.23 3.23 4.16 2.08 4.16ZM2.08 10.41C0.93 10.41 0 9.48 0 8.33C0 7.18 0.93 6.25 2.08 6.25C3.23 6.25 4.16 7.18 4.16 8.33C4.16 9.48 3.23 10.41 2.08 10.41ZM0 14.58C0 15.73 0.93 16.66 2.08 16.66C3.23 16.66 4.16 15.73 4.16 14.58C4.16 13.43 3.23 12.5 2.08 12.5C0.93 12.5 0 13.43 0 14.58Z" fill="#6B6B6B" fill-opacity="1.000000" fill-rule="nonzero"/>
</svg>
