<svg width="3.126709" height="13.000000" viewBox="0 0 3.12671 13" fill="none" xmlns="http://www.w3.org/2000/svg" xmlns:xlink="http://www.w3.org/1999/xlink">
	<desc>
			Created with Pixso.
	</desc>
	<defs/>
	<path id="Vector" d="M1.56 3.25C0.69 3.25 0 2.52 0 1.62C0 0.72 0.69 0 1.56 0C2.42 0 3.12 0.72 3.12 1.62C3.12 2.52 2.42 3.25 1.56 3.25ZM1.56 8.12C0.69 8.12 0 7.39 0 6.5C0 5.6 0.69 4.87 1.56 4.87C2.42 4.87 3.12 5.6 3.12 6.5C3.12 7.39 2.42 8.12 1.56 8.12ZM0 11.37C0 12.27 0.69 13 1.56 13C2.42 13 3.12 12.27 3.12 11.37C3.12 10.47 2.42 9.75 1.56 9.75C0.69 9.75 0 10.47 0 11.37Z" fill="#6B6B6B" fill-opacity="1.000000" fill-rule="nonzero"/>
</svg>
