<svg width="50.000000" height="50.000000" viewBox="0 0 50 50" fill="none" xmlns="http://www.w3.org/2000/svg" xmlns:xlink="http://www.w3.org/1999/xlink">
	<desc>
			Created with Pixso.
	</desc>
	<defs/>
	<path id="Vector" d="M0 25C0 11.19 11.19 0 25 0C38.8 0 50 11.19 50 25C50 38.8 38.8 50 25 50C11.19 50 0 38.8 0 25ZM19.92 36.32C20.65 37.05 21.84 37.05 22.57 36.32L32.57 26.32C33.3 25.59 33.3 24.4 32.57 23.67L22.57 13.67C21.84 12.94 20.65 12.94 19.92 13.67C19.19 14.4 19.19 15.59 19.92 16.32L28.59 25L19.92 33.67C19.19 34.4 19.19 35.59 19.92 36.32Z" fill="#6B6B6B" fill-opacity="1.000000" fill-rule="nonzero"/>
</svg>
