<svg width="50.000000" height="50.000000" viewBox="0 0 50 50" fill="none" xmlns="http://www.w3.org/2000/svg" xmlns:xlink="http://www.w3.org/1999/xlink">
	<desc>
			Created with Pixso.
	</desc>
	<defs/>
	<path id="Vector" d="M50 25C50 38.8 38.8 50 25 50C11.19 50 0 38.8 0 25C0 11.19 11.19 0 25 0C38.8 0 50 11.19 50 25ZM30.07 13.67C29.34 12.94 28.15 12.94 27.42 13.67L17.42 23.67C16.69 24.4 16.69 25.59 17.42 26.32L27.42 36.32C28.15 37.05 29.34 37.05 30.07 36.32C30.8 35.59 30.8 34.4 30.07 33.67L21.4 25L30.07 16.32C30.8 15.59 30.8 14.4 30.07 13.67Z" fill="#6B6B6B" fill-opacity="1.000000" fill-rule="nonzero"/>
</svg>
