<svg width="25.000000" height="25.000000" viewBox="0 0 25 25" fill="none" xmlns="http://www.w3.org/2000/svg" xmlns:xlink="http://www.w3.org/1999/xlink">
	<desc>
			Created with Pixso.
	</desc>
	<defs/>
	<path id="вопросы" d="M12.5 0C19.4 0 25 5.59 25 12.5C25 19.4 19.4 25 12.5 25C5.59 25 0 19.4 0 12.5C0 5.59 5.59 0 12.5 0ZM12.5 16.87C11.8 16.87 11.25 17.43 11.25 18.12C11.25 18.81 11.8 19.37 12.5 19.37C13.19 19.37 13.75 18.81 13.75 18.12C13.75 17.43 13.19 16.87 12.5 16.87ZM12.5 5.93C10.6 5.93 9.06 7.47 9.06 9.37C9.06 9.89 9.48 10.31 10 10.31C10.47 10.31 10.86 9.95 10.92 9.5L10.93 9.37C10.93 8.51 11.63 7.81 12.5 7.81C13.36 7.81 14.06 8.51 14.06 9.37C14.06 10.04 13.89 10.38 13.25 11.04L13.08 11.21C11.98 12.3 11.56 13.02 11.56 14.37C11.56 14.89 11.98 15.31 12.5 15.31C13.01 15.31 13.43 14.89 13.43 14.37C13.43 13.7 13.6 13.36 14.24 12.7L14.41 12.53C15.51 11.44 15.93 10.72 15.93 9.37C15.93 7.47 14.39 5.93 12.5 5.93Z" fill="#212121" fill-opacity="1.000000" fill-rule="nonzero"/>
</svg>
