<svg width="22.500000" height="22.500000" viewBox="0 0 22.5 22.5" fill="none" xmlns="http://www.w3.org/2000/svg" xmlns:xlink="http://www.w3.org/1999/xlink">
	<desc>
			Created with Pixso.
	</desc>
	<defs/>
	<path id="поиск" d="M2.5 8.75C2.5 5.29 5.29 2.5 8.75 2.5C12.2 2.5 15 5.29 15 8.75C15 12.2 12.2 15 8.75 15C5.29 15 2.5 12.2 2.5 8.75ZM8.75 0C3.91 0 0 3.91 0 8.75C0 13.58 3.91 17.5 8.75 17.5C10.71 17.5 12.52 16.85 13.99 15.75L20.36 22.13C20.85 22.62 21.64 22.62 22.13 22.13C22.62 21.64 22.62 20.85 22.13 20.36L15.75 13.99C16.85 12.52 17.5 10.71 17.5 8.75C17.5 3.91 13.58 0 8.75 0Z" fill="#212121" fill-opacity="1.000000" fill-rule="nonzero"/>
</svg>
