<svg width="23.000000" height="24.000000" viewBox="0 0 23 24" fill="none" xmlns="http://www.w3.org/2000/svg" xmlns:xlink="http://www.w3.org/1999/xlink">
	<desc>
			Created with Pixso.
	</desc>
	<defs/>
	<path id="настройки" d="M11.51 0C12.41 0.01 13.31 0.11 14.19 0.31C14.57 0.39 14.86 0.71 14.9 1.11L15.11 2.98C15.21 3.85 15.93 4.5 16.8 4.5C17.03 4.5 17.26 4.45 17.48 4.36L19.2 3.6C19.56 3.44 19.98 3.53 20.24 3.81C21.49 5.15 22.41 6.74 22.95 8.48C23.07 8.86 22.93 9.27 22.62 9.5L21.09 10.62C20.66 10.95 20.4 11.45 20.4 11.99C20.4 12.54 20.66 13.04 21.09 13.36L22.62 14.49C22.94 14.72 23.07 15.13 22.95 15.51C22.41 17.25 21.49 18.84 20.25 20.17C19.98 20.46 19.56 20.55 19.2 20.39L17.48 19.63C16.98 19.41 16.42 19.45 15.95 19.72C15.48 19.99 15.17 20.46 15.11 21L14.9 22.88C14.86 23.27 14.58 23.59 14.2 23.68C12.42 24.1 10.57 24.1 8.79 23.68C8.41 23.59 8.13 23.27 8.09 22.88L7.88 21C7.82 20.47 7.51 19.99 7.04 19.72C6.57 19.45 6.01 19.42 5.51 19.64L3.79 20.4C3.43 20.55 3.01 20.47 2.74 20.18C1.5 18.85 0.57 17.25 0.04 15.51C-0.08 15.13 0.05 14.73 0.37 14.49L1.9 13.37C2.33 13.05 2.59 12.54 2.59 12C2.59 11.45 2.33 10.95 1.9 10.63L0.37 9.5C0.05 9.27 -0.08 8.86 0.04 8.48C0.58 6.74 1.5 5.15 2.74 3.82C3.01 3.53 3.43 3.44 3.79 3.6L5.51 4.36C6 4.58 6.57 4.54 7.04 4.27C7.51 4 7.82 3.52 7.88 2.98L8.09 1.11C8.13 0.71 8.42 0.39 8.8 0.31C9.69 0.11 10.58 0.01 11.51 0ZM11.49 8.3C9.46 8.3 7.81 9.96 7.81 12C7.81 14.03 9.46 15.69 11.49 15.69C13.53 15.69 15.18 14.03 15.18 12C15.18 9.96 13.53 8.3 11.49 8.3Z" fill="#212121" fill-opacity="1.000000" fill-rule="nonzero"/>
</svg>
