<svg width="20.000000" height="20.000000" viewBox="0 0 20 20" fill="none" xmlns="http://www.w3.org/2000/svg" xmlns:xlink="http://www.w3.org/1999/xlink">
	<desc>
			Created with Pixso.
	</desc>
	<defs/>
	<path id="Vector" d="M10 0C7.34 0 4.8 1.05 2.92 2.92C1.05 4.8 0 7.34 0 10C0 12.65 1.05 15.19 2.92 17.07C4.8 18.94 7.34 20 10 20C12.65 20 15.19 18.94 17.07 17.07C18.94 15.19 20 12.65 20 10C20 7.34 18.94 4.8 17.07 2.92C15.19 1.05 12.65 0 10 0Z" fill="#000000" fill-opacity="0.400000" fill-rule="nonzero"/>
	<path id="Vector" d="M14.97 5.5L13.1 15.06C13.1 15.06 13.02 15.5 12.47 15.5C12.19 15.5 12.04 15.36 12.04 15.36L7.98 11.99L6 10.99L3.45 10.31C3.45 10.31 3 10.18 3 9.81C3 9.5 3.46 9.35 3.46 9.35L14.12 5.11C14.12 5.11 14.45 4.99 14.68 5C14.83 5 15 5.06 15 5.25C15 5.37 14.97 5.5 14.97 5.5Z" fill="#FFFFFF" fill-opacity="1.000000" fill-rule="nonzero"/>
	<path id="Vector" d="M9.49 13.25L7.78 14.93C7.78 14.93 7.71 14.99 7.61 14.99C7.57 15 7.54 14.99 7.5 14.97L7.98 11.99L9.49 13.25Z" fill="#B0BEC5" fill-opacity="1.000000" fill-rule="nonzero"/>
	<path id="Vector" d="M12.94 7.09C12.86 6.98 12.7 6.96 12.59 7.05L6 11C6 11 7.05 13.94 7.21 14.45C7.37 14.96 7.5 14.97 7.5 14.97L7.98 11.99L12.9 7.44C13.01 7.36 13.03 7.2 12.94 7.09Z" fill="#CFD8DC" fill-opacity="1.000000" fill-rule="nonzero"/>
</svg>
