<svg width="32.000000" height="32.000000" viewBox="0 0 32 32" fill="none" xmlns="http://www.w3.org/2000/svg" xmlns:xlink="http://www.w3.org/1999/xlink">
	<desc>
			Created with Pixso.
	</desc>
	<defs/>
	<path id="Vector" d="M16 0C11.75 0 7.68 1.68 4.68 4.68C1.68 7.68 0 11.75 0 16C0 20.24 1.68 24.31 4.68 27.31C7.68 30.31 11.75 32 16 32C20.24 32 24.31 30.31 27.31 27.31C30.31 24.31 32 20.24 32 16C32 11.75 30.31 7.68 27.31 4.68C24.31 1.68 20.24 0 16 0Z" fill="#29B6F6" fill-opacity="1.000000" fill-rule="nonzero"/>
	<path id="Vector" d="M23.95 8.8L20.96 24.1C20.96 24.1 20.83 24.8 19.96 24.8C19.5 24.8 19.26 24.58 19.26 24.58L12.77 19.19L9.6 17.59L5.52 16.5C5.52 16.5 4.79 16.29 4.79 15.7C4.79 15.2 5.54 14.96 5.54 14.96L22.59 8.18C22.59 8.18 23.11 7.99 23.49 8C23.73 8 23.99 8.09 23.99 8.4C23.99 8.59 23.95 8.8 23.95 8.8Z" fill="#FFFFFF" fill-opacity="1.000000" fill-rule="nonzero"/>
	<path id="Vector" d="M15.2 21.2L12.45 23.9C12.45 23.9 12.34 23.99 12.18 23.99C12.12 24 12.06 23.99 12 23.96L12.77 19.19L15.2 21.2Z" fill="#B0BEC5" fill-opacity="1.000000" fill-rule="nonzero"/>
	<path id="Vector" d="M20.71 11.35C20.58 11.18 20.33 11.14 20.15 11.28L9.59 17.6C9.59 17.6 11.28 22.31 11.54 23.12C11.79 23.94 12 23.96 12 23.96L12.77 19.19L20.64 11.91C20.81 11.78 20.85 11.53 20.71 11.35Z" fill="#CFD8DC" fill-opacity="1.000000" fill-rule="nonzero"/>
</svg>
