<svg width="18.000000" height="18.000000" viewBox="0 0 18 18" fill="none" xmlns="http://www.w3.org/2000/svg" xmlns:xlink="http://www.w3.org/1999/xlink">
	<desc>
			Created with Pixso.
	</desc>
	<defs/>
	<rect id="Галочка" rx="-0.500000" width="17.000000" height="17.000000" transform="translate(0.500000 0.500000)" fill="#FFFFFF" fill-opacity="0"/>
	<path id="Галочка" d="M3.25 0C1.45 0 0 1.45 0 3.25L0 14.75C0 16.54 1.45 18 3.25 18L14.75 18C16.54 18 18 16.54 18 14.75L18 3.25C18 1.45 16.54 0 14.75 0L3.25 0ZM14.27 6.28L7.52 13.02C7.23 13.31 6.75 13.31 6.46 13.02L3.72 10.28C3.42 9.98 3.42 9.51 3.72 9.21C4.01 8.92 4.48 8.92 4.78 9.21L6.99 11.43L13.22 5.21C13.51 4.92 13.98 4.92 14.28 5.21C14.57 5.51 14.57 5.98 14.27 6.28Z" fill="#6B6B6B" fill-opacity="1.000000" fill-rule="nonzero"/>
</svg>
