<svg width="15.392059" height="15.354156" viewBox="0 0 15.3921 15.3542" fill="none" xmlns="http://www.w3.org/2000/svg" xmlns:xlink="http://www.w3.org/1999/xlink">
	<desc>
			Created with Pixso.
	</desc>
	<defs/>
	<path id="Union" d="M7.69608 0C8.53607 0 9.19608 0.660004 9.19608 1.5L9.19608 6.17709L13.8921 6.17709C14.7321 6.17709 15.3921 6.8371 15.3921 7.67709C15.3921 8.51709 14.7321 9.17709 13.8921 9.17709L9.19608 9.17709L9.19608 13.8542C9.19608 14.6942 8.53607 15.3542 7.69608 15.3542C6.85608 15.3542 6.19608 14.6942 6.19608 13.8542L6.19608 9.17709L1.5 9.17709C0.660004 9.17709 0 8.51709 0 7.67709C0 6.8371 0.660004 6.17709 1.5 6.17709L6.19608 6.17709L6.19608 1.5C6.19608 0.660004 6.85608 0 7.69608 0Z" clip-rule="evenodd" fill="#BEBEBE" fill-opacity="1.000000" fill-rule="evenodd"/>
</svg>
