<svg width="20.000000" height="20.000000" viewBox="0 0 20 20" fill="none" xmlns="http://www.w3.org/2000/svg" xmlns:xlink="http://www.w3.org/1999/xlink">
	<desc>
			Created with Pixso.
	</desc>
	<defs/>
	<path id="Vector" d="M10 0C7.34 0 4.8 1.05 2.92 2.92C1.05 4.8 0 7.34 0 10C0 12.65 1.05 15.19 2.92 17.07C4.8 18.94 7.34 20 10 20C12.65 20 15.19 18.94 17.07 17.07C18.94 15.19 20 12.65 20 10C20 7.34 18.94 4.8 17.07 2.92C15.19 1.05 12.65 0 10 0Z" fill="#000000" fill-opacity="0.400000" fill-rule="nonzero"/>
	<path id="Vector" d="M15.96 7.02C15.99 6.94 16 6.87 15.99 6.81C15.99 6.63 15.86 6.5 15.57 6.5L14.26 6.5C13.93 6.5 13.78 6.69 13.69 6.9C13.69 6.9 12.87 8.57 11.93 9.68C11.63 10 11.47 10 11.31 10C11.22 10 11 9.89 11 9.59L11 7C11 6.66 10.91 6.5 10.63 6.5L8.3 6.5C8.1 6.5 8 6.66 8 6.82C8 7.15 8.44 7.23 8.5 8.16L8.5 9.97C8.5 10.42 8.42 10.5 8.25 10.5C7.81 10.5 6.93 9 6.35 7.03C6.22 6.64 6.09 6.5 5.76 6.5L4.44 6.5C4.06 6.5 4 6.68 4 6.88C4 7.24 4.29 9.19 5.93 11.43C7.12 13.06 8.68 14 10.07 14C10.91 14 10.99 13.78 10.99 13.45L10.99 11.96C11 11.56 11.09 11.5 11.35 11.5C11.54 11.5 11.93 11.62 12.68 12.5C13.55 13.5 13.7 14 14.2 14L15.51 14C15.81 14 15.99 13.87 16 13.62C16 13.56 15.99 13.49 15.97 13.41C15.87 13.12 15.43 12.42 14.87 11.75C14.56 11.37 14.26 11.01 14.12 10.81C14.03 10.68 13.99 10.58 14 10.5C14 10.4 14.05 10.31 14.12 10.19C14.11 10.19 15.8 7.82 15.96 7.02Z" fill="#FFFFFF" fill-opacity="1.000000" fill-rule="nonzero"/>
</svg>
