<svg width="32.000000" height="32.000000" viewBox="0 0 32 32" fill="none" xmlns="http://www.w3.org/2000/svg" xmlns:xlink="http://www.w3.org/1999/xlink">
	<desc>
			Created with Pixso.
	</desc>
	<defs/>
	<path id="Vector" d="M16 0C11.75 0 7.68 1.68 4.68 4.68C1.68 7.68 0 11.75 0 16C0 20.24 1.68 24.31 4.68 27.31C7.68 30.31 11.75 32 16 32C20.24 32 24.31 30.31 27.31 27.31C30.31 24.31 32 20.24 32 16C32 11.75 30.31 7.68 27.31 4.68C24.31 1.68 20.24 0 16 0Z" fill="#1976D2" fill-opacity="1.000000" fill-rule="nonzero"/>
	<path id="Vector" d="M25.54 11.23C25.58 11.11 25.6 11 25.59 10.9C25.58 10.61 25.38 10.4 24.91 10.4L22.82 10.4C22.29 10.4 22.05 10.72 21.9 11.04C21.9 11.04 20.6 13.72 19.09 15.5C18.61 16.01 18.36 16 18.09 16C17.95 16 17.59 15.82 17.59 15.35L17.59 11.21C17.59 10.65 17.46 10.4 17.01 10.4L13.29 10.4C12.96 10.4 12.79 10.65 12.79 10.91C12.79 11.44 13.51 11.57 13.59 13.06L13.59 15.96C13.59 16.67 13.47 16.79 13.21 16.79C12.5 16.79 11.09 14.4 10.16 11.25C9.95 10.63 9.75 10.4 9.22 10.4L7.11 10.4C6.5 10.4 6.39 10.69 6.39 11.01C6.39 11.59 6.87 14.71 9.5 18.29C11.39 20.9 13.9 22.4 16.11 22.4C17.46 22.4 17.59 22.05 17.59 21.52L17.59 19.14C17.59 18.5 17.74 18.4 18.17 18.4C18.47 18.4 19.09 18.6 20.29 20C21.68 21.61 21.93 22.4 22.72 22.4L24.82 22.4C25.3 22.4 25.58 22.19 25.59 21.8C25.6 21.69 25.58 21.58 25.55 21.46C25.39 21 24.68 19.87 23.79 18.79C23.3 18.2 22.82 17.61 22.59 17.29C22.44 17.08 22.39 16.94 22.39 16.79C22.4 16.65 22.48 16.51 22.59 16.31C22.57 16.31 25.28 12.51 25.54 11.23Z" fill="#FFFFFF" fill-opacity="1.000000" fill-rule="nonzero"/>
</svg>
