<svg width="155.010498" height="155.000000" viewBox="0 0 155.01 155" fill="none" xmlns="http://www.w3.org/2000/svg" xmlns:xlink="http://www.w3.org/1999/xlink">
	<desc>
			Created with Pixso.
	</desc>
	<defs/>
	<path id="Ellipse 104" d="M117.41 143.93C100.33 154.19 80.86 157.09 62.71 153.55C43.15 149.77 26.74 138.9 15.61 124.12C3.61 108.22 -1.31 89.16 0.31 70.74C2.03 50.89 11.13 33.43 24.66 20.83C39.21 7.23 57.66 0.34 76.14 0.01L76.46 18.33C61.25 18.6 47.47 24.6 37.15 34.23C26.02 44.59 19.79 58.27 18.57 72.34C17.22 87.49 21.75 101.82 30.25 113.09C39.39 125.25 52.35 132.87 66.21 135.56C81.14 138.48 95.86 135.48 107.97 128.21L117.41 143.93Z" fill="#6DB0FF" fill-opacity="1.000000" fill-rule="evenodd"/>
	<path id="Ellipse 105" d="M77.5 0C94.99 0 111.14 5.81 124.12 15.6C138.1 26.12 147.5 40.48 151.97 56.11C156.81 72.93 155.68 90.05 149.85 105.23C143.6 121.57 132.39 134.57 118.6 143.2L108.88 127.66C120.2 120.57 128.3 110.27 132.73 98.68C137.52 86.21 137.79 73.11 134.36 61.18C130.68 48.33 123.02 37.71 113.09 30.25C102.43 22.2 89.91 18.33 77.5 18.33L77.5 0Z" fill="#FF7070" fill-opacity="1.000000" fill-rule="evenodd"/>
</svg>
